<svg version="1.1" id="Layer_1" xmlns="http://www.w3.org/2000/svg" xmlns:xlink="http://www.w3.org/1999/xlink" x="0px" y="0px"
	 width="100%" viewBox="0 0 608 608" enable-background="new 0 0 608 608" xml:space="preserve">
<path fill="#8ecaff" opacity="1.000000" stroke="none" 
	d="
M552.931519,319.300598 
	C559.975952,334.721008 557.718933,348.389191 546.097595,359.847198 
	C539.593750,366.259644 536.055664,373.953217 535.452881,382.883759 
	C534.231506,400.977966 533.424927,419.099884 532.248718,437.197479 
	C530.770630,459.940765 529.084656,482.670471 527.505798,505.407288 
	C526.768250,516.029419 526.164001,526.661743 525.314270,537.274597 
	C524.941528,541.929993 526.683716,544.965759 531.012573,546.625977 
	C531.935181,546.979797 532.793091,547.529419 533.634766,548.061768 
	C535.944824,549.522766 538.223999,551.189087 537.923218,554.275452 
	C537.618286,557.404541 535.067078,559.047363 532.415527,559.282349 
	C524.867676,559.951050 522.538269,564.201477 523.155579,571.114929 
	C523.267761,572.371521 522.648743,573.710388 522.287109,574.988586 
	C521.621887,577.339661 519.990784,578.782471 517.596558,578.767273 
	C515.284058,578.752563 513.546265,577.467102 512.592102,575.237671 
	C511.780182,573.340515 511.491791,571.311279 511.745331,569.355408 
	C512.528320,563.315186 510.491089,559.376221 504.232819,558.005615 
	C502.993530,557.734253 501.764130,556.925781 500.779114,556.076294 
	C497.685760,553.408752 497.925385,548.884827 501.389343,546.718567 
	C503.193207,545.590515 505.317505,544.930786 507.356171,544.231873 
	C510.963898,542.994934 512.601257,540.578308 512.750977,536.749756 
	C513.355774,521.281189 514.051697,505.815735 514.796753,490.353149 
	C516.366760,457.768341 517.999817,425.186615 519.571106,392.601898 
	C519.711426,389.691437 519.589722,386.768372 519.589722,382.665741 
	C511.478821,386.543701 504.394684,389.680695 497.582214,393.325470 
	C495.243927,394.576477 496.121979,397.685059 496.459808,399.845947 
	C497.783112,408.309814 497.523956,416.823181 497.236206,425.287872 
	C496.249420,454.314423 490.523682,482.060883 474.351532,506.890503 
	C466.785736,518.506531 457.429108,528.270569 445.903839,535.974304 
	C444.010986,537.239563 441.810303,538.238647 440.864807,540.659119 
	C442.096863,543.196350 444.819519,543.588867 446.863861,544.874207 
	C451.814301,547.986633 456.735565,551.145569 460.648071,555.547363 
	C465.277191,560.755432 463.567505,566.098206 456.806122,567.196350 
	C452.119049,567.957642 448.262970,569.570496 445.579834,573.715637 
	C443.672668,576.661987 440.488220,577.354248 437.212799,577.272583 
	C418.962402,576.817566 401.181671,573.675354 383.895203,567.782104 
	C381.060516,566.815674 379.035706,564.936340 377.778198,562.239319 
	C376.847168,560.242432 375.404755,558.939575 373.119354,559.169983 
	C352.578156,561.241333 331.978149,561.784790 311.517548,561.131653 
	C310.340332,563.658508 311.961182,565.068237 312.616058,566.648376 
	C313.698761,569.261108 314.956543,571.784485 315.393402,574.630188 
	C316.664093,582.907593 311.989960,588.140686 303.649567,586.947693 
	C295.806793,585.825867 288.783997,587.222656 282.266296,591.598022 
	C276.575592,595.418213 270.795715,594.910034 265.429718,591.233459 
	C259.459503,587.142822 253.393219,585.824280 246.110367,587.109070 
	C236.298386,588.840027 231.345810,583.350769 232.911896,573.415527 
	C233.719437,568.292480 235.283066,563.288574 238.101288,558.921509 
	C240.584381,555.073669 239.550995,552.897339 235.754990,551.130676 
	C232.737289,549.726318 229.803391,548.134521 226.876999,546.543640 
	C224.686340,545.352722 222.603333,545.272644 220.188446,546.092529 
	C212.467575,548.713806 204.586731,548.015991 196.538086,547.759644 
	C179.812180,547.226990 162.898926,546.358887 146.629288,551.946899 
	C142.574249,553.339661 138.566406,553.791504 134.429626,552.253113 
	C124.779358,548.664368 114.996437,550.967590 105.259621,551.739746 
	C96.282761,552.451599 87.298180,552.950928 78.349541,551.652344 
	C67.203918,550.034912 59.118217,543.939575 53.468292,534.297241 
	C40.329975,511.875031 38.366253,488.598389 47.644386,464.291382 
	C51.876804,453.203217 59.352852,445.924133 70.958092,443.023987 
	C72.363922,442.672668 74.023529,442.793335 74.960846,441.228027 
	C75.218307,439.701355 73.947456,438.903412 73.185997,437.876831 
	C69.903259,433.451050 66.594421,428.984772 64.730270,423.779114 
	C62.096046,416.423065 59.006695,409.869080 52.804081,404.304718 
	C45.577839,397.822113 46.536755,388.292023 48.069046,379.396271 
	C49.196682,372.849915 50.425846,366.311310 51.933170,359.844635 
	C52.578777,357.074921 52.248508,354.947449 50.148586,353.099670 
	C46.926876,350.264832 46.694721,346.871063 48.230953,343.119568 
	C49.808121,339.268127 51.427921,335.432281 52.910275,331.544342 
	C54.989189,326.091705 58.483150,322.166138 64.188469,320.373047 
	C66.623802,319.607605 68.960030,318.473724 69.585350,315.684540 
	C72.136520,304.305084 78.030334,293.764343 79.160919,282.144989 
	C80.776711,265.539093 84.884415,249.419586 87.437393,233.010864 
	C87.914406,229.944946 86.825577,227.859543 84.540359,226.106262 
	C68.965935,214.157150 64.247772,197.690948 64.409790,178.922134 
	C64.489548,169.682877 65.114403,160.676788 68.438110,151.966812 
	C76.331528,131.281570 91.991753,121.782524 113.436859,120.788223 
	C120.323364,120.468925 127.018700,119.577866 133.397217,116.888847 
	C136.734711,115.481857 140.442169,114.855019 143.686401,115.828201 
	C154.108887,118.954674 164.125504,116.182373 174.229004,114.516487 
	C183.634842,112.965630 193.104401,112.196838 202.573013,112.972183 
	C208.108856,113.425491 210.476166,111.208412 211.538757,106.160034 
	C213.665298,96.056801 216.455811,86.119453 220.200165,76.487816 
	C229.897675,51.542747 248.203476,35.142025 272.376770,24.941559 
	C283.435852,20.274927 294.423340,15.839961 304.173065,8.478996 
	C311.668213,2.820225 320.582153,3.248511 328.908325,7.084067 
	C335.011383,9.895516 341.214539,10.517074 347.789185,10.779603 
	C369.532166,11.647809 390.506012,15.744766 408.696167,28.642307 
	C424.960968,40.174709 435.313202,56.490475 443.325287,74.272263 
	C446.919647,82.249519 452.227814,87.647285 460.055054,91.137604 
	C475.291199,97.931679 490.144165,105.463387 503.664764,115.354622 
	C506.752838,117.613754 509.833954,119.928566 512.639282,122.519768 
	C523.352966,132.415649 523.532288,145.159164 513.167175,155.340424 
	C505.460388,162.910477 496.379517,168.408188 486.536163,172.733414 
	C478.800964,176.132324 478.028595,177.121796 478.384216,185.528046 
	C478.686707,192.678192 479.865326,199.743652 482.075500,206.577957 
	C489.270935,228.827499 484.675262,248.628342 469.498352,266.065125 
	C466.278534,269.764343 465.721161,272.393188 469.457764,276.134918 
	C483.901245,290.598114 489.106476,309.434662 493.240265,328.581573 
	C496.166107,342.133392 496.512512,355.939240 495.046387,370.567505 
	C499.121613,363.248108 499.528687,345.563385 497.068054,331.077667 
	C494.848633,318.012115 490.352203,305.766815 484.683258,293.595825 
	C488.812103,292.030762 491.350525,294.736908 494.119781,296.099121 
	C499.664673,298.826721 500.678253,298.626190 502.911469,292.766479 
	C506.355438,283.729858 511.671844,275.927032 518.470154,269.162537 
	C521.551453,266.096497 522.896362,263.168488 520.621643,259.015411 
	C518.473083,255.092651 520.556152,252.561203 524.176331,251.276611 
	C532.943298,248.165787 541.275330,250.118149 549.205627,254.174210 
	C551.889343,255.546829 553.455139,258.899658 550.778748,260.723358 
	C543.006409,266.019592 544.371338,274.054810 543.574463,281.440369 
	C542.914917,287.553284 542.820618,293.725037 542.323669,299.858398 
	C542.004883,303.792145 543.123962,306.967499 546.047546,309.705872 
	C548.850769,312.331573 551.108032,315.450684 552.931519,319.300598 
M457.256348,145.281540 
	C455.446960,143.107193 453.795776,140.773895 451.799774,138.787003 
	C444.547577,131.567780 435.479614,130.425400 426.694580,135.511398 
	C418.367462,140.332291 414.115540,148.105469 411.395905,156.931091 
	C407.802856,168.590881 407.894135,180.598267 408.531647,192.573120 
	C408.835785,198.285431 411.617615,202.949814 416.680145,206.196594 
	C419.313171,207.885254 421.684174,210.081482 423.877289,212.336517 
	C428.499115,217.088852 428.408600,220.574661 423.522461,225.129257 
	C419.862366,228.540970 415.756744,231.408981 411.413269,233.922012 
	C397.350006,242.058701 378.353912,239.100372 367.232269,227.023849 
	C363.840240,223.340576 363.669617,219.750748 366.860992,215.849792 
	C368.121521,214.309006 369.591003,212.928467 371.042297,211.556366 
	C375.664795,207.186127 377.996552,201.894547 377.669006,195.491150 
	C377.095062,184.269989 375.307739,173.248734 370.302307,163.118195 
	C361.983368,146.281433 348.527222,135.528519 329.739746,133.507675 
	C298.343414,130.130569 271.958527,147.099579 260.798065,176.713943 
	C255.306046,191.287048 253.502167,206.233643 255.186630,221.792892 
	C257.354797,241.820145 264.930573,258.636139 281.681213,270.625122 
	C291.039490,277.323151 301.709747,281.074402 312.553741,284.440155 
	C314.507599,285.046600 316.742706,285.196442 317.608368,287.647797 
	C315.398682,289.029633 313.278198,288.975891 311.113342,288.543274 
	C303.749054,287.071503 298.006714,288.705688 295.036499,296.418549 
	C294.153320,298.712006 292.592651,300.778473 291.150574,302.812988 
	C289.792389,304.729126 289.236359,307.435730 286.160583,308.333527 
	C266.507172,273.321228 237.532822,251.405685 197.622711,245.013977 
	C205.715515,247.707489 213.792511,250.635834 221.760406,253.867828 
	C242.143433,262.135742 259.273285,274.619873 272.105438,292.671387 
	C275.090668,296.870758 274.521454,298.686859 269.662018,300.367767 
	C265.889099,301.672821 261.942444,302.535492 258.279114,304.082825 
	C253.217072,306.220917 249.825562,304.615662 246.704178,300.473267 
	C236.434265,286.844025 223.133484,277.038940 207.479950,270.437622 
	C199.301605,266.988708 190.966003,263.919250 181.051956,262.630066 
	C183.156189,265.629852 185.536423,265.929199 187.640396,266.577698 
	C198.981644,270.073303 209.935211,274.462982 220.170151,280.523376 
	C239.095276,291.729584 251.419647,308.151947 258.164612,328.908844 
	C258.835724,330.974091 260.034576,333.407837 256.966949,335.430756 
	C250.538910,332.447296 247.319504,326.425079 243.714569,320.714661 
	C244.836731,327.703278 248.083984,333.419617 253.848267,337.589233 
	C258.436768,340.908386 263.103760,344.118896 267.728577,347.387970 
	C275.753052,353.060120 284.010498,358.483795 289.777802,366.713531 
	C296.080139,375.706696 296.221222,386.405212 289.298767,393.355499 
	C280.571869,402.117432 272.914093,411.768250 264.755219,421.001678 
	C253.961594,433.216888 251.210724,433.396545 238.295609,423.559296 
	C233.802948,420.137390 233.723495,416.033661 238.158203,412.521973 
	C240.439987,410.715118 243.155853,409.959412 246.016174,409.613037 
	C247.500320,409.433350 248.987946,409.187958 250.433899,408.816345 
	C251.651016,408.503448 253.218124,409.156281 254.864197,407.248352 
	C235.178879,408.235107 217.013947,404.726746 199.320526,398.340424 
	C209.491730,405.728973 221.808228,407.590637 234.119720,411.634155 
	C223.796417,421.800262 212.975250,429.399170 200.660751,434.747223 
	C188.259567,440.132904 175.155136,442.216492 161.580460,441.716766 
	C164.111572,443.387421 166.688034,443.680450 169.385910,443.738129 
	C189.494385,444.167847 206.618484,436.203522 222.542892,424.902679 
	C225.008331,423.153076 227.578079,420.328247 230.497360,421.873047 
	C236.549316,425.075562 242.737183,428.378235 247.431137,434.608337 
	C226.468506,452.536316 203.180206,463.792389 175.850372,466.182373 
	C187.330795,466.716858 198.489304,465.127777 209.262772,461.123352 
	C222.023621,456.380249 233.483215,449.314575 244.339325,441.187927 
	C247.897324,438.524506 249.587891,439.271606 250.089706,443.686066 
	C250.314468,445.663147 250.242188,447.682098 250.201157,449.679901 
	C249.981781,460.365601 250.777344,470.946136 253.339310,481.355591 
	C261.132202,513.018494 278.851776,535.617493 311.417023,544.338745 
	C332.631073,550.020081 354.239899,550.378357 375.837891,547.325256 
	C391.839539,545.063354 407.598846,541.333557 422.342010,534.462463 
	C461.131256,516.384644 478.451019,483.717621 483.606049,443.085541 
	C486.199585,422.643005 485.140503,402.149750 482.494873,381.821198 
	C478.234894,349.088745 468.898468,317.756653 454.710571,287.913605 
	C451.286041,280.710449 450.291229,280.401489 442.769653,282.779785 
	C439.484009,283.818665 436.064636,285.635437 432.517059,283.247925 
	C433.266998,280.667969 435.465485,280.306824 437.134674,279.375580 
	C448.044098,273.289062 457.532837,265.564148 464.986053,255.464096 
	C473.191895,244.344330 477.245850,232.161209 473.497498,218.401459 
	C469.679993,204.387878 466.884857,190.288635 466.405487,175.700760 
	C466.057739,165.118835 463.686615,154.910934 457.256348,145.281540 
M244.672058,139.039352 
	C263.286407,131.704376 282.370148,125.920677 301.903961,121.589821 
	C326.463379,116.144737 351.313690,112.841263 376.413055,111.384621 
	C403.385559,109.819267 430.305695,109.964012 457.084045,114.165619 
	C471.878387,116.486900 486.311188,120.237816 500.573364,125.040871 
	C496.646637,121.934608 492.668304,118.978569 488.380127,116.575363 
	C471.530334,107.132271 454.880432,96.678719 435.923859,92.416374 
	C405.225220,85.513847 373.968750,87.021172 343.006958,90.678757 
	C311.031464,94.456093 279.975281,102.570969 249.861069,114.148148 
	C230.157425,121.723076 211.062134,129.926331 197.399094,147.291397 
	C189.504761,157.324722 181.071793,166.914978 174.452911,177.960159 
	C185.056671,169.885300 196.023499,162.494308 207.742874,156.192810 
	C219.500732,149.870621 231.617264,144.374420 244.672058,139.039352 
M336.162323,68.559196 
	C346.869629,66.944199 357.683533,66.523125 368.460480,65.695564 
	C373.450806,65.312355 374.292175,64.196106 372.769104,59.381512 
	C368.200439,44.939541 359.846130,33.261608 347.537842,24.330759 
	C341.963043,20.285702 335.908508,18.669655 329.199432,19.475937 
	C320.952454,20.467035 312.685760,21.419651 304.599457,23.402908 
	C280.392456,29.339949 258.076508,38.825558 241.483749,58.391144 
	C231.585434,70.062889 226.238266,83.839241 223.407532,100.002892 
	C259.495483,82.529793 296.626617,72.813263 336.162323,68.559196 
M401.909271,35.607601 
	C389.001862,26.945290 374.842743,22.224871 359.096619,21.877613 
	C370.173126,33.567856 378.182373,46.828014 383.174072,61.914791 
	C384.257904,65.190559 386.965820,65.715477 390.012726,65.679802 
	C400.851746,65.552879 411.566772,66.944313 422.275696,68.406319 
	C424.042053,68.647453 426.125214,69.333160 427.362244,67.540077 
	C428.592651,65.756561 427.323303,64.020844 426.399475,62.466290 
	C420.209595,52.050133 412.642548,42.866638 401.909271,35.607601 
M164.220200,251.318466 
	C162.801514,255.014114 159.878433,257.046783 156.404968,258.563690 
	C138.226593,266.502380 119.409485,271.500122 99.402870,271.283203 
	C97.259155,271.259979 94.778137,270.422760 93.007469,272.398224 
	C93.239685,274.457275 94.630356,274.446747 95.952705,274.725647 
	C104.263405,276.478424 112.521057,275.634308 120.741241,274.185211 
	C132.767548,272.065125 144.148376,267.857880 155.420303,263.288177 
	C160.364380,261.283783 162.000015,262.626465 161.133163,267.827057 
	C160.068314,274.215363 158.986618,280.607117 157.658203,286.944153 
	C150.345047,321.830872 145.225876,356.964294 145.296921,392.714661 
	C145.307770,398.174591 146.079636,403.483673 147.430511,408.738556 
	C146.527039,347.582764 161.753662,288.655060 172.452484,228.900467 
	C169.201431,229.113800 168.790680,231.077393 168.350708,233.060745 
	C167.056503,238.894974 165.734390,244.722992 164.220200,251.318466 
M126.934753,190.541992 
	C129.065765,176.819305 127.669785,163.643890 120.515808,151.480438 
	C110.294937,134.102585 90.547112,134.244797 80.697571,151.736710 
	C74.572464,162.614365 73.220108,174.507004 74.593445,186.582886 
	C75.876938,197.868698 79.639198,208.336258 88.919464,215.884171 
	C97.352692,222.743179 107.736649,222.398575 115.615692,214.850296 
	C122.269478,208.475800 125.355110,200.307693 126.934753,190.541992 
M101.919441,489.590149 
	C99.946289,480.123566 96.116478,471.529694 89.612503,464.300140 
	C86.076508,460.369781 81.807953,457.553070 76.283165,457.265656 
	C67.316719,456.799133 60.350613,461.735931 56.411152,471.761230 
	C51.783886,483.536865 50.682434,495.704956 53.852299,507.996185 
	C56.228260,517.209045 59.249912,526.273254 66.524330,533.035950 
	C76.941132,542.719849 89.853363,540.418701 96.284431,527.772583 
	C102.285629,515.971741 104.021942,503.477692 101.919441,489.590149 
M129.763809,337.899231 
	C127.342987,346.482788 123.626328,353.868317 113.533852,355.267395 
	C110.573448,355.677765 107.598885,355.986298 104.630295,356.337189 
	C103.133942,356.514099 101.534958,356.564972 101.764320,358.763947 
	C112.861748,362.648865 127.452408,355.819855 131.770004,344.726807 
	C133.095657,341.320862 134.244202,337.846252 135.550629,334.432434 
	C136.979752,330.697937 135.810211,328.717346 131.782227,328.336670 
	C116.723885,326.913483 101.811813,324.626434 87.169128,320.738281 
	C84.920097,320.141083 82.156578,319.346771 80.568939,321.405060 
	C75.075539,328.526947 69.559944,335.813568 70.324333,345.560028 
	C70.763763,351.162964 76.285072,355.096252 81.336197,353.616974 
	C80.685997,351.517181 78.864571,350.517731 77.302124,349.394897 
	C73.140533,346.404449 72.070557,342.712891 74.419128,338.117310 
	C76.310272,334.416779 78.174370,330.700409 80.162621,327.052185 
	C81.830124,323.992493 84.652496,322.932434 87.815681,323.930603 
	C100.096031,327.805756 112.757713,329.466644 125.480461,330.911041 
	C128.988235,331.309235 130.932587,333.270844 129.763809,337.899231 
M73.188980,373.926300 
	C73.703796,370.403534 74.098045,366.884186 73.226364,362.386505 
	C72.369560,363.818237 71.865204,364.313416 71.765068,364.880005 
	C69.997948,374.879517 68.499825,384.953857 69.570435,395.102539 
	C70.274765,401.779175 74.138977,406.722382 80.164474,409.894379 
	C88.994484,414.542725 98.433975,416.993805 108.343956,417.493408 
	C121.323647,418.147736 124.888672,414.734711 125.847816,401.752838 
	C126.606010,391.490692 127.698204,381.253601 128.535858,370.996704 
	C128.743866,368.449799 129.100739,365.818726 128.167374,363.000793 
	C126.128654,364.018097 126.311516,365.627228 126.161430,367.005524 
	C124.867874,378.884644 123.458839,390.754089 122.392830,402.654053 
	C121.645142,411.000793 118.448463,414.452423 110.086594,414.267883 
	C100.014778,414.045654 90.337212,411.984711 81.348419,407.153595 
	C76.461014,404.526764 73.695686,400.620758 72.539833,395.177795 
	C71.080193,388.304352 72.980347,381.609711 73.188980,373.926300 
M146.955429,534.184937 
	C146.489456,536.185303 144.517303,537.794189 145.383667,540.465759 
	C150.388947,540.220581 151.798447,536.217346 153.373215,532.779480 
	C159.682083,519.006409 159.600601,504.421722 158.143051,489.789429 
	C157.737305,485.715973 156.339890,481.706970 155.093430,477.764496 
	C154.340515,475.383026 152.928711,473.315552 149.354721,474.531677 
	C155.033615,494.538940 155.997345,514.225342 146.955429,534.184937 
M150.135529,130.943604 
	C160.107132,142.775482 164.195816,156.924911 165.673340,172.553970 
	C170.066818,169.396011 170.087677,165.493088 169.583450,161.761719 
	C168.226913,151.723068 164.675156,142.467117 158.554337,134.325851 
	C156.637619,131.776428 154.129074,129.817490 150.998856,128.838516 
	C149.094833,128.243027 148.841019,128.928329 150.135529,130.943604 
M181.841858,212.309708 
	C183.076401,212.472000 184.352509,213.152252 186.024979,211.593399 
	C178.085648,208.654007 170.099762,206.605194 163.020111,201.130447 
	C159.921799,208.409103 157.246109,214.973221 155.764893,222.238754 
	C159.500076,222.542786 160.919067,220.556305 162.203659,218.368927 
	C168.488693,207.666626 168.488693,207.666748 180.209152,211.756439 
	C180.522125,211.865631 180.837906,211.966812 181.841858,212.309708 
M522.403992,349.818665 
	C516.632324,335.338318 519.223755,322.881744 531.985046,312.588715 
	C523.610107,314.657745 517.653809,323.479950 517.242981,333.673492 
	C516.705505,347.009277 520.371948,355.465027 528.404358,358.078644 
	C525.877075,355.535858 524.013672,353.219604 522.403992,349.818665 
M109.095398,231.714691 
	C107.112411,232.017319 105.129417,232.319946 103.146431,232.622574 
	C117.176834,234.568466 130.336121,232.181885 142.551102,225.077393 
	C131.548462,226.606293 120.987000,230.333481 109.095398,231.714691 
M516.612671,298.913879 
	C516.479370,299.395416 516.403015,299.902039 516.203247,300.354248 
	C515.118958,302.809052 515.628052,304.643311 518.345398,305.381226 
	C521.164612,306.146820 521.889221,304.006561 522.216553,302.013092 
	C522.951782,297.535645 522.939880,293.035858 522.234802,287.988708 
	C518.852722,291.148987 518.145813,294.817352 516.612671,298.913879 
M116.091217,462.571930 
	C111.256332,460.023499 106.421455,457.475037 101.586571,454.926605 
	C109.443977,462.099854 118.489098,466.773376 129.146362,468.010406 
	C125.029350,466.296509 120.912346,464.582611 116.091217,462.571930 
M86.822350,363.811218 
	C87.949234,367.664032 89.969513,366.919983 92.908226,365.342224 
	C90.989525,362.866577 89.545456,361.482513 86.822350,363.811218 
M91.013847,349.757202 
	C92.710678,351.261169 94.349190,351.375061 95.322372,349.115601 
	C95.877434,347.826874 94.817230,346.885529 93.607193,346.612854 
	C91.582016,346.156464 90.390099,346.897339 91.013847,349.757202 
z"/>
<path fill="#8ecaff" opacity="1.000000" stroke="none" 
	d="
M323.357574,212.894440 
	C309.072571,209.043335 303.856232,191.681656 313.380829,180.911911 
	C318.770691,174.817444 327.784729,173.956482 334.062469,178.936508 
	C339.769958,183.464157 342.385498,192.692184 340.090881,200.205551 
	C337.584442,208.412415 332.595184,212.312668 323.357574,212.894440 
z"/>
<path fill="#8ecaff" opacity="1.000000" stroke="none" 
	d="
M287.828369,324.543823 
	C290.660797,335.091461 291.723450,345.439453 291.312744,355.948181 
	C291.240387,357.799927 291.312897,359.897858 289.452698,360.783112 
	C287.400330,361.759766 286.039124,359.923737 284.858063,358.635773 
	C280.120514,353.469421 274.833344,348.997345 268.985443,345.126343 
	C264.346375,342.055573 262.510254,337.252930 261.868317,331.986084 
	C261.482605,328.821259 262.819305,326.491943 266.112030,325.623138 
	C271.237762,324.270660 276.355682,322.887726 281.491791,321.575897 
	C284.159546,320.894531 286.470184,321.258270 287.828369,324.543823 
z"/>
<path fill="#8ecaff" opacity="1.000000" stroke="none" 
	d="
M430.077698,200.590393 
	C427.289368,194.282761 427.499023,188.324921 429.882965,182.357651 
	C431.605774,178.045288 434.352875,175.077789 439.313354,174.667633 
	C444.632172,174.227814 448.263428,176.603088 450.576508,181.188461 
	C453.284515,186.556778 454.202667,192.143967 452.477417,198.059692 
	C450.694946,204.171707 446.412476,208.856674 441.641724,209.100494 
	C435.825165,209.397797 432.660431,205.598999 430.077698,200.590393 
z"/>
<path fill="#8ecaff" opacity="1.000000" stroke="none" 
	d="
M269.270660,321.389282 
	C260.905579,323.611725 255.630386,319.489197 255.719025,311.276947 
	C255.742676,309.084930 256.856689,307.842010 258.751404,307.247681 
	C263.813141,305.659912 268.863312,304.006134 273.997162,302.686157 
	C278.371521,301.561523 281.463989,304.686615 283.230347,311.333679 
	C284.324524,315.451080 282.588959,317.629120 278.732483,318.665558 
	C275.691864,319.482727 272.683716,320.420624 269.270660,321.389282 
z"/>
<path fill="#8ecaff" opacity="1.000000" stroke="none" 
	d="
M266.263550,62.096497 
	C269.952423,59.720570 272.843262,60.744370 274.653503,63.831490 
	C276.235779,66.529823 275.470856,69.387207 272.963959,71.411003 
	C270.589508,73.327888 268.083618,73.478218 265.838867,71.127029 
	C263.041321,68.196854 263.148804,65.239113 266.263550,62.096497 
z"/>
<path fill="#8ecaff" opacity="1.000000" stroke="none" 
	d="
M249.898987,70.133453 
	C253.843994,71.376114 256.188751,73.347214 254.489700,77.511681 
	C253.545258,79.826584 251.845398,81.327103 249.167465,81.185989 
	C246.790878,81.060745 245.076157,79.824013 244.303406,77.588463 
	C243.437225,75.082603 244.492111,73.005455 246.379135,71.440727 
	C247.217529,70.745537 248.458908,70.536324 249.898987,70.133453 
z"/>
<path fill="#8ecaff" opacity="1.000000" stroke="none" 
	d="
M101.563553,143.985229 
	C110.667496,146.025894 116.325531,151.557007 119.441017,159.630524 
	C125.216942,174.598343 125.139015,189.473907 117.862892,204.012527 
	C114.503738,210.724518 109.376785,215.151443 101.536057,215.232712 
	C93.659180,215.314331 87.964195,211.355087 84.081467,204.711655 
	C74.937752,189.066589 73.969566,172.999313 82.066711,156.658096 
	C85.939720,148.841827 91.803749,143.682343 101.563553,143.985229 
M98.156082,203.670273 
	C103.747177,204.827927 107.416267,201.953308 110.313850,197.714340 
	C116.577820,188.550568 116.095520,170.545166 109.427383,161.649124 
	C103.649223,153.940399 94.914978,154.256302 89.710762,162.303345 
	C87.490440,165.736526 86.360878,169.532501 85.633682,173.479599 
	C83.273407,186.290680 87.864143,197.968796 98.156082,203.670273 
z"/>
<path fill="#8ecaff" opacity="1.000000" stroke="none" 
	d="
M57.350128,511.354431 
	C54.123001,499.299438 53.616100,487.647461 57.833694,476.137970 
	C60.489830,468.889618 64.860062,463.012238 73.064499,461.934357 
	C81.104713,460.878052 86.542831,465.530365 90.986099,471.597137 
	C91.575310,472.401611 92.194092,473.204742 92.644821,474.087341 
	C100.814964,490.086609 102.411194,506.459991 94.539261,522.971375 
	C87.677231,537.364441 72.789551,538.350342 63.750221,525.247253 
	C60.904301,521.121887 58.658131,516.667297 57.350128,511.354431 
M89.730965,505.063904 
	C89.724770,501.571320 89.888847,498.068176 89.672485,494.588654 
	C89.347870,489.368195 87.912834,484.431793 84.852654,480.103577 
	C78.903809,471.689575 70.026955,472.479248 65.861092,481.895020 
	C64.734505,484.441376 64.012627,487.265930 63.651997,490.034058 
	C62.380157,499.796326 64.126984,509.015259 70.134834,516.959351 
	C75.426559,523.956543 82.761162,523.151428 86.843117,515.464539 
	C88.423042,512.489319 89.151588,509.252228 89.730965,505.063904 
z"/>
<path fill="#8ecaff" opacity="1.000000" stroke="none" 
	d="
M111.267853,181.740692 
	C110.613213,186.463852 109.843910,190.691788 107.512108,194.451431 
	C104.109215,199.938034 97.891014,200.739288 93.839958,195.709854 
	C86.474052,186.565002 86.006134,174.448990 92.516312,164.681503 
	C96.219009,159.126190 103.747032,159.767761 107.432114,165.615433 
	C110.439896,170.388306 111.669098,175.654572 111.267853,181.740692 
M101.724083,184.794205 
	C103.275536,181.017548 102.537056,177.726501 99.993584,174.220551 
	C97.017868,177.515274 96.730667,180.645599 97.914398,183.915649 
	C98.449661,185.394302 99.254105,187.301270 101.724083,184.794205 
z"/>
<path fill="#8ecaff" opacity="1.000000" stroke="none" 
	d="
M77.171616,517.175415 
	C69.074593,513.397705 64.119774,501.509705 66.052971,491.396576 
	C67.515884,483.743652 71.019974,479.105072 75.559273,478.812317 
	C79.892769,478.532837 84.096695,483.063446 86.168571,490.488983 
	C88.047058,497.221558 87.944382,503.938416 85.335571,510.489014 
	C83.926491,514.027161 81.874832,516.965088 77.171616,517.175415 
z"/>
</svg>